<?xml version="1.0" encoding="UTF-8" standalone="no"?><!DOCTYPE svg PUBLIC "-//W3C//DTD SVG 1.1//EN" "http://www.w3.org/Graphics/SVG/1.1/DTD/svg11.dtd"><svg width="100%" height="100%" viewBox="0 0 240 177" version="1.1" xmlns="http://www.w3.org/2000/svg" xmlns:xlink="http://www.w3.org/1999/xlink" xml:space="preserve" style="fill-rule:evenodd;clip-rule:evenodd;stroke-linejoin:round;stroke-miterlimit:1.41421;"><path d="M144.863,16.892c0.422,-0.001 0.816,-0.005 1.254,-0.004c6.396,0.003 11.758,5.107 11.768,11.763c0,0.233 0,0.723 0,1.028l0,0l0,0.386l0,13.404l-0.009,0c-0.001,0.626 -0.001,1.006 0,1.029c0.019,1.76 1.507,3.006 3.011,3.002c0.432,-0.001 0.984,0 1.251,0c0.053,-0.002 0.107,-0.004 0.16,-0.004l0.521,0.052l0.402,0.049l0.442,0.137l0.371,0.123l0.405,0.22l0.331,0.186l0.358,0.295l0.283,0.239l0.303,0.367l0.226,0.279l0.24,0.442l0.16,0.299l0.168,0.541l0.085,0.276l0.088,0.877c0,0 -0.088,0.877 -0.088,0.877l-0.085,0.277l-0.168,0.541l-0.16,0.299l-0.24,0.441l-0.226,0.279l-0.303,0.367l-0.283,0.24l-0.358,0.295l-0.331,0.186l-0.405,0.22l-0.371,0.122l-0.442,0.138l-0.402,0.049l-0.521,0.052c-0.052,0 -0.104,-0.002 -0.156,-0.004c-0.422,0.001 -0.816,0.004 -1.255,0.004c-6.395,-0.003 -11.757,-5.107 -11.767,-11.763c-0.001,-0.233 0,-0.723 0,-1.029l0,0l0,-0.385l0.009,-13.405c0,-0.625 0.001,-1.005 0,-1.028c-0.019,-1.76 -1.507,-3.006 -3.012,-3.002c-0.431,0.001 -0.983,0 -1.251,0c-0.053,0.002 -0.106,0.004 -0.159,0.004l-0.521,-0.052l-0.402,-0.049l-0.442,-0.138l-0.371,-0.122l-0.405,-0.22l-0.331,-0.186l-0.358,-0.295l-0.283,-0.239l-0.303,-0.368l-0.226,-0.279l-0.24,-0.441l-0.16,-0.299l-0.168,-0.541l-0.085,-0.276l-0.088,-0.878c0,0 0.088,-0.877 0.088,-0.877l0.085,-0.276l0.168,-0.541l0.16,-0.299l0.24,-0.441l0.226,-0.279l0.303,-0.368l0.283,-0.239l0.358,-0.295l0.331,-0.186l0.405,-0.22l0.371,-0.122l0.442,-0.138l0.402,-0.049l0.521,-0.052c0.052,0 0.104,0.002 0.156,0.004Z" style="fill:#ffd85f;"/><path d="M144.863,86.865c0.422,0.001 0.816,0.004 1.254,0.004c6.396,-0.003 11.758,-5.107 11.768,-11.763c0,-0.234 0,-0.723 0,-1.029l0,0l0,-0.385l0,-13.405l-0.009,0c-0.001,-0.625 -0.001,-1.005 0,-1.028c0.019,-1.76 1.507,-3.006 3.011,-3.002c0.432,0.001 0.984,0 1.251,0c0.053,0.002 0.107,0.004 0.16,0.004l0.521,-0.052l0.402,-0.049l0.442,-0.138l0.371,-0.122l0.405,-0.22l0.331,-0.186l0.358,-0.295l0.283,-0.24l0.303,-0.367l0.226,-0.279l0.24,-0.441l0.16,-0.299l0.168,-0.541l0.085,-0.277l0.088,-0.877c0,0 -0.088,-0.877 -0.088,-0.877l-0.085,-0.276l-0.168,-0.541l-0.16,-0.299l-0.24,-0.442l-0.226,-0.279l-0.303,-0.367l-0.283,-0.239l-0.358,-0.295l-0.331,-0.186l-0.405,-0.22l-0.371,-0.123l-0.442,-0.137l-0.402,-0.049l-0.521,-0.052c-0.052,0 -0.104,0.001 -0.156,0.004c-0.422,-0.002 -0.816,-0.005 -1.255,-0.004c-6.395,0.002 -11.757,5.107 -11.767,11.763c-0.001,0.233 0,0.723 0,1.028l0,0l0,0.386l0.009,13.404c0,0.626 0.001,1.006 0,1.029c-0.019,1.76 -1.507,3.006 -3.012,3.002c-0.431,-0.001 -0.983,-0.001 -1.251,0c-0.053,-0.003 -0.106,-0.004 -0.159,-0.005l-0.521,0.053l-0.402,0.049l-0.442,0.137l-0.371,0.123l-0.405,0.219l-0.331,0.187l-0.358,0.295l-0.283,0.239l-0.303,0.367l-0.226,0.279l-0.24,0.441l-0.16,0.3l-0.168,0.54l-0.085,0.277l-0.088,0.877c0,0 0.088,0.877 0.088,0.877l0.085,0.277l0.168,0.541l0.16,0.299l0.24,0.441l0.226,0.279l0.303,0.367l0.283,0.239l0.358,0.296l0.331,0.186l0.405,0.22l0.371,0.122l0.442,0.138l0.402,0.049l0.521,0.052c0.052,0 0.104,-0.002 0.156,-0.004Z" style="fill:#a7d8bf;"/><path d="M144.707,78.103c2.442,0.024 4.382,1.979 4.382,4.383c0,2.405 -1.94,4.36 -4.382,4.383l-0.521,-0.052l-0.402,-0.049l-0.442,-0.138l-0.371,-0.122l-0.405,-0.22l-0.331,-0.186l-0.358,-0.296l-0.283,-0.239l-0.303,-0.367l-0.226,-0.279l-0.24,-0.441l-0.16,-0.299l-0.168,-0.541l-0.085,-0.277l-0.088,-0.877c0,0 0.088,-0.877 0.088,-0.877l0.085,-0.277l0.168,-0.54l0.16,-0.3l0.24,-0.441l0.226,-0.279l0.303,-0.367l0.283,-0.239l0.358,-0.295l0.331,-0.187l0.405,-0.219l0.371,-0.123l0.442,-0.137l0.402,-0.049l0.521,-0.053Z" style="fill:#00776f;"/><path d="M144.707,16.888c2.442,0.023 4.382,1.978 4.382,4.382c0,2.405 -1.94,4.36 -4.382,4.383l-0.521,-0.052l-0.402,-0.049l-0.442,-0.138l-0.371,-0.122l-0.405,-0.22l-0.331,-0.186l-0.358,-0.295l-0.283,-0.239l-0.303,-0.368l-0.226,-0.279l-0.24,-0.441l-0.16,-0.299l-0.168,-0.541l-0.085,-0.277l-0.088,-0.877c0,0 0.088,-0.877 0.088,-0.877l0.085,-0.276l0.168,-0.541l0.16,-0.299l0.24,-0.441l0.226,-0.279l0.303,-0.368l0.283,-0.239l0.358,-0.295l0.331,-0.186l0.405,-0.22l0.371,-0.122l0.442,-0.138l0.402,-0.049l0.521,-0.052Z" style="fill:#f47420;"/><path d="M162.284,47.496c2.442,0.023 4.383,1.978 4.383,4.382c0,2.405 -1.941,4.36 -4.383,4.383l-0.52,-0.052l-0.403,-0.049l-0.442,-0.138l-0.371,-0.122l-0.405,-0.22l-0.331,-0.186l-0.358,-0.296l-0.283,-0.239l-0.303,-0.367l-0.226,-0.279l-0.24,-0.441l-0.16,-0.299l-0.168,-0.541l-0.084,-0.277l-0.089,-0.877c0,0 0.089,-0.877 0.089,-0.877l0.084,-0.276l0.168,-0.541l0.16,-0.299l0.24,-0.442l0.226,-0.279l0.303,-0.367l0.283,-0.239l0.358,-0.295l0.331,-0.186l0.405,-0.22l0.371,-0.123l0.442,-0.137l0.403,-0.049l0.52,-0.052Z" style="fill:#a4228e;"/><path d="M160.84,47.496l0.031,0.003l1.369,0c-2.446,0.065 -4.341,2.002 -4.341,4.378c0,2.376 1.895,4.313 4.341,4.378l-1.369,0l-0.028,0.003c-3.663,-0.015 -6.977,-1.693 -9.142,-4.381c2.156,-2.686 5.468,-4.366 9.139,-4.381Z" style="fill:#de8ebc;"/><path d="M94.759,16.892c-0.422,-0.001 -0.816,-0.005 -1.254,-0.004c-6.396,0.003 -11.757,5.107 -11.768,11.763c0,0.233 0,0.723 0,1.028l0,0l0,0.386l0,13.404l0.01,0c0,0.626 0,1.006 0,1.029c-0.02,1.76 -1.508,3.006 -3.012,3.002c-0.432,-0.001 -0.984,0 -1.251,0c-0.053,-0.002 -0.106,-0.004 -0.16,-0.004l-0.52,0.052l-0.402,0.049l-0.443,0.137l-0.371,0.123l-0.405,0.22l-0.331,0.186l-0.358,0.295l-0.283,0.239l-0.303,0.367l-0.226,0.279l-0.239,0.442l-0.16,0.299l-0.168,0.541l-0.085,0.276l-0.089,0.877c0,0 0.089,0.877 0.089,0.877l0.085,0.277l0.168,0.541l0.16,0.299l0.239,0.441l0.226,0.279l0.303,0.367l0.283,0.24l0.358,0.295l0.331,0.186l0.405,0.22l0.371,0.122l0.443,0.138l0.402,0.049l0.52,0.052c0.052,0 0.105,-0.002 0.157,-0.004c0.422,0.001 0.816,0.004 1.254,0.004c6.396,-0.003 11.757,-5.107 11.768,-11.763c0,-0.233 0,-0.723 0,-1.029l0,0l0,-0.385l-0.01,-13.405c0,-0.625 0,-1.005 0,-1.028c0.019,-1.76 1.508,-3.006 3.012,-3.002c0.432,0.001 0.983,0 1.251,0c0.053,0.002 0.106,0.004 0.16,0.004l0.52,-0.052l0.402,-0.049l0.443,-0.138l0.371,-0.122l0.404,-0.22l0.331,-0.186l0.359,-0.295l0.283,-0.239l0.303,-0.368l0.226,-0.279l0.239,-0.441l0.16,-0.299l0.168,-0.541l0.085,-0.276l0.089,-0.878c0,0 -0.089,-0.877 -0.089,-0.877l-0.085,-0.276l-0.168,-0.541l-0.16,-0.299l-0.239,-0.441l-0.226,-0.279l-0.303,-0.368l-0.283,-0.239l-0.359,-0.295l-0.331,-0.186l-0.404,-0.22l-0.371,-0.122l-0.443,-0.138l-0.402,-0.049l-0.52,-0.052c-0.053,0 -0.105,0.002 -0.157,0.004Z" style="fill:#abe1fa;"/><path d="M94.759,86.865c-0.422,0.001 -0.816,0.004 -1.254,0.004c-6.396,-0.003 -11.757,-5.107 -11.768,-11.763c0,-0.234 0,-0.723 0,-1.029l0,0l0,-0.385l0,-13.405l0.01,0c0,-0.625 0,-1.005 0,-1.028c-0.02,-1.76 -1.508,-3.006 -3.012,-3.002c-0.432,0.001 -0.984,0 -1.251,0c-0.053,0.002 -0.106,0.004 -0.16,0.004l-0.52,-0.052l-0.402,-0.049l-0.443,-0.138l-0.371,-0.122l-0.405,-0.22l-0.331,-0.186l-0.358,-0.295l-0.283,-0.24l-0.303,-0.367l-0.226,-0.279l-0.239,-0.441l-0.16,-0.299l-0.168,-0.541l-0.085,-0.277l-0.089,-0.877c0,0 0.089,-0.877 0.089,-0.877l0.085,-0.276l0.168,-0.541l0.16,-0.299l0.239,-0.442l0.226,-0.279l0.303,-0.367l0.283,-0.239l0.358,-0.295l0.331,-0.186l0.405,-0.22l0.371,-0.123l0.443,-0.137l0.402,-0.049l0.52,-0.052c0.052,0 0.105,0.001 0.157,0.004c0.422,-0.002 0.816,-0.005 1.254,-0.004c6.396,0.002 11.757,5.107 11.768,11.763c0,0.233 0,0.723 0,1.028l0,0l0,0.386l-0.01,13.404c0,0.626 0,1.006 0,1.029c0.019,1.76 1.508,3.006 3.012,3.002c0.432,-0.001 0.983,-0.001 1.251,0c0.053,-0.003 0.106,-0.004 0.16,-0.005l0.52,0.053l0.402,0.049l0.443,0.137l0.371,0.123l0.404,0.219l0.331,0.187l0.359,0.295l0.283,0.239l0.303,0.367l0.226,0.279l0.239,0.441l0.16,0.3l0.168,0.54l0.085,0.277l0.089,0.877c0,0 -0.089,0.877 -0.089,0.877l-0.085,0.277l-0.168,0.541l-0.16,0.299l-0.239,0.441l-0.226,0.279l-0.303,0.367l-0.283,0.239l-0.359,0.296l-0.331,0.186l-0.404,0.22l-0.371,0.122l-0.443,0.138l-0.402,0.049l-0.52,0.052c-0.053,0 -0.105,-0.002 -0.157,-0.004Z" style="fill:#fabaab;"/><path d="M94.916,78.103c-2.442,0.024 -4.383,1.979 -4.383,4.383c0,2.405 1.941,4.36 4.383,4.383l0.52,-0.052l0.402,-0.049l0.443,-0.138l0.371,-0.122l0.404,-0.22l0.331,-0.186l0.359,-0.296l0.283,-0.239l0.303,-0.367l0.226,-0.279l0.239,-0.441l0.16,-0.299l0.168,-0.541l0.085,-0.277l0.089,-0.877c0,0 -0.089,-0.877 -0.089,-0.877l-0.085,-0.277l-0.168,-0.54l-0.16,-0.3l-0.239,-0.441l-0.226,-0.279l-0.303,-0.367l-0.283,-0.239l-0.359,-0.295l-0.331,-0.187l-0.404,-0.219l-0.371,-0.123l-0.443,-0.137l-0.402,-0.049l-0.52,-0.053Z" style="fill:#c25967;"/><path d="M94.916,16.888c-2.442,0.023 -4.383,1.978 -4.383,4.382c0,2.405 1.941,4.36 4.383,4.383l0.52,-0.052l0.402,-0.049l0.443,-0.138l0.371,-0.122l0.404,-0.22l0.331,-0.186l0.359,-0.295l0.283,-0.239l0.303,-0.368l0.226,-0.279l0.239,-0.441l0.16,-0.299l0.168,-0.541l0.085,-0.277l0.089,-0.877c0,0 -0.089,-0.877 -0.089,-0.877l-0.085,-0.276l-0.168,-0.541l-0.16,-0.299l-0.239,-0.441l-0.226,-0.279l-0.303,-0.368l-0.283,-0.239l-0.359,-0.295l-0.331,-0.186l-0.404,-0.22l-0.371,-0.122l-0.443,-0.138l-0.402,-0.049l-0.52,-0.052Z" style="fill:#007ebd;"/><path d="M77.353,47.496c-2.442,0.023 -4.383,1.978 -4.383,4.382c0,2.405 1.941,4.36 4.383,4.383l0.52,-0.052l0.402,-0.049l0.443,-0.138l0.371,-0.122l0.405,-0.22l0.331,-0.186l0.358,-0.296l0.283,-0.239l0.303,-0.367l0.226,-0.279l0.239,-0.441l0.16,-0.299l0.168,-0.541l0.085,-0.277l0.089,-0.877c0,0 -0.089,-0.877 -0.089,-0.877l-0.085,-0.276l-0.168,-0.541l-0.16,-0.299l-0.239,-0.442l-0.226,-0.279l-0.303,-0.367l-0.283,-0.239l-0.358,-0.295l-0.331,-0.186l-0.405,-0.22l-0.371,-0.123l-0.443,-0.137l-0.402,-0.049l-0.52,-0.052Z" style="fill:#9b1518;"/><path d="M78.782,47.496l-0.03,0.003l-1.369,0c2.445,0.065 4.34,2.002 4.34,4.378c0,2.376 -1.895,4.313 -4.34,4.378l1.369,0l0.028,0.003c3.662,-0.015 6.977,-1.693 9.141,-4.381c-2.156,-2.686 -5.467,-4.366 -9.139,-4.381Z" style="fill:#f26354;"/><path d="M116.496,77.732c-1.431,-1.61 -2.146,-3.693 -2.146,-6.249l0,-29.825l8.74,0l0,29.058c0,1.176 0.179,1.968 0.537,2.377c0.358,0.409 0.894,0.613 1.61,0.613c0.204,0 0.422,0 0.652,0c0.23,0 0.447,-0.025 0.651,-0.076c0.205,0 0.435,-0.026 0.69,-0.077l0.92,5.52c-0.357,0.205 -0.817,0.384 -1.38,0.537c-0.46,0.153 -1.035,0.281 -1.725,0.383c-0.69,0.103 -1.469,0.154 -2.338,0.154c-2.709,0 -4.779,-0.805 -6.211,-2.415ZM122.63,26.094c0.869,0.971 1.304,2.223 1.304,3.756c0,1.534 -0.448,2.812 -1.342,3.834c-0.895,1.022 -2.211,1.533 -3.949,1.533c-1.635,0 -2.9,-0.498 -3.795,-1.495c-0.894,-0.996 -1.342,-2.21 -1.342,-3.642c0,-1.584 0.448,-2.888 1.342,-3.91c0.895,-1.022 2.236,-1.533 4.025,-1.533c1.636,0 2.888,0.485 3.757,1.457Z" style="fill:#403f41;fill-rule:nonzero;"/><path d="M19.448,156.643c-1.431,-1.61 -2.146,-3.693 -2.146,-6.249l0,-29.825l8.74,0l0,29.059c0,1.175 0.179,1.968 0.537,2.377c0.358,0.408 0.894,0.613 1.61,0.613c0.204,0 0.422,0 0.652,0c0.23,0 0.447,-0.026 0.651,-0.077c0.205,0 0.435,-0.025 0.69,-0.076l0.921,5.52c-0.358,0.204 -0.818,0.383 -1.381,0.537c-0.46,0.153 -1.035,0.281 -1.725,0.383c-0.69,0.102 -1.469,0.153 -2.338,0.153c-2.709,0 -4.779,-0.805 -6.211,-2.415ZM25.582,105.005c0.869,0.971 1.304,2.224 1.304,3.757c0,1.533 -0.448,2.811 -1.342,3.833c-0.895,1.023 -2.211,1.534 -3.949,1.534c-1.635,0 -2.9,-0.498 -3.795,-1.495c-0.894,-0.997 -1.342,-2.211 -1.342,-3.642c0,-1.585 0.448,-2.888 1.342,-3.91c0.895,-1.023 2.236,-1.534 4.025,-1.534c1.636,0 2.888,0.486 3.757,1.457Z" style="fill:#403f41;fill-rule:nonzero;"/><path d="M38.923,156.643c-1.38,-1.61 -2.07,-3.667 -2.07,-6.172l0,-45.773l8.74,-1.61l0,46.54c0,1.175 0.23,1.993 0.69,2.453c0.46,0.46 1.125,0.69 1.994,0.69c0.511,0 1.009,-0.025 1.495,-0.076c0.486,-0.052 0.933,-0.128 1.342,-0.23c0.46,-0.103 0.869,-0.205 1.226,-0.307l1.074,5.52c-0.665,0.256 -1.406,0.486 -2.224,0.69c-0.715,0.205 -1.559,0.371 -2.53,0.499c-0.971,0.127 -2.07,0.191 -3.297,0.191c-2.913,0 -5.06,-0.805 -6.44,-2.415Z" style="fill:#403f41;fill-rule:nonzero;"/><path d="M82.242,120.569l8.741,0l0,19.705c0,3.067 0.191,5.635 0.575,7.705c0.383,2.07 0.805,3.744 1.265,5.022c0.562,1.534 1.176,2.735 1.84,3.604l-6.824,2.76c-0.613,-0.562 -1.175,-1.278 -1.687,-2.147c-0.408,-0.715 -0.83,-1.597 -1.265,-2.645c-0.434,-1.048 -0.728,-2.287 -0.881,-3.719c-1.38,3.016 -3.323,5.163 -5.827,6.441c-2.505,1.278 -5.112,1.917 -7.821,1.917c-4.038,0 -6.913,-1.176 -8.625,-3.527c-1.713,-2.351 -2.569,-5.572 -2.569,-9.661l0,-25.455l8.741,0l0,25.302c0,2.147 0.383,3.833 1.15,5.06c0.766,1.227 2.07,1.84 3.91,1.84c1.125,0 2.236,-0.319 3.335,-0.958c1.099,-0.639 2.096,-1.546 2.99,-2.722c0.895,-1.176 1.61,-2.594 2.147,-4.255c0.537,-1.661 0.805,-3.514 0.805,-5.559l0,-18.708Z" style="fill:#403f41;fill-rule:nonzero;"/><path d="M112.911,119.649c1.482,0 2.939,0.154 4.37,0.46c1.431,0.307 2.709,0.665 3.834,1.074c1.329,0.46 2.555,0.945 3.68,1.456l-2.607,5.981c-1.022,-0.46 -2.045,-0.869 -3.067,-1.227c-0.869,-0.307 -1.827,-0.601 -2.875,-0.882c-1.048,-0.281 -2.083,-0.421 -3.105,-0.421c-1.176,0 -2.185,0.281 -3.029,0.843c-0.843,0.562 -1.265,1.406 -1.265,2.53c0,2.914 2.121,5.188 6.364,6.824c1.584,0.613 3.016,1.265 4.293,1.955c1.278,0.69 2.365,1.495 3.259,2.415c0.895,0.92 1.572,1.981 2.032,3.182c0.46,1.201 0.69,2.62 0.69,4.255c0,1.431 -0.294,2.837 -0.882,4.217c-0.588,1.38 -1.457,2.607 -2.607,3.68c-1.15,1.074 -2.555,1.93 -4.217,2.569c-1.661,0.639 -3.539,0.958 -5.635,0.958c-1.687,0 -3.348,-0.191 -4.984,-0.575c-1.635,-0.383 -3.105,-0.805 -4.408,-1.265c-1.304,-0.46 -2.339,-0.894 -3.105,-1.303l-1.15,-0.537l2.836,-6.44l0.997,0.536c0.665,0.409 1.508,0.844 2.53,1.304c1.023,0.46 2.122,0.882 3.297,1.265c1.176,0.383 2.249,0.575 3.22,0.575c1.789,0 3.118,-0.358 3.987,-1.073c0.869,-0.716 1.304,-1.662 1.304,-2.837c0,-1.329 -0.473,-2.543 -1.419,-3.642c-0.945,-1.099 -2.364,-2.006 -4.255,-2.722c-3.936,-1.482 -6.76,-3.169 -8.472,-5.06c-1.713,-1.892 -2.569,-4.345 -2.569,-7.361c0,-1.431 0.333,-2.798 0.997,-4.102c0.665,-1.303 1.572,-2.453 2.722,-3.45c1.15,-0.997 2.517,-1.776 4.102,-2.338c1.584,-0.563 3.297,-0.844 5.137,-0.844Z" style="fill:#403f41;fill-rule:nonzero;"/><path d="M129.012,120.569l6.9,0l1.534,-8.97l7.207,-1.61l0,10.58l9.43,0l-1.073,6.211l-8.357,0l0,22.694c0,1.329 0.357,2.186 1.073,2.569c0.716,0.383 1.508,0.575 2.377,0.575c0.715,0 1.431,-0.051 2.147,-0.153c0.715,-0.103 1.354,-0.23 1.916,-0.384c0.665,-0.153 1.304,-0.332 1.917,-0.536l1.457,5.75l-0.69,0.23c-0.46,0.204 -1.137,0.422 -2.032,0.652c-0.894,0.23 -1.942,0.434 -3.143,0.613c-1.202,0.179 -2.518,0.268 -3.949,0.268c-1.431,0 -2.747,-0.153 -3.949,-0.46c-1.201,-0.306 -2.236,-0.805 -3.105,-1.495c-0.869,-0.69 -1.546,-1.572 -2.031,-2.645c-0.486,-1.073 -0.729,-2.402 -0.729,-3.987l0,-23.691l-6.9,0l0,-6.211Z" style="fill:#403f41;fill-rule:nonzero;"/><path d="M190.579,140.274c0,3.067 0.191,5.635 0.575,7.705c0.383,2.07 0.805,3.744 1.265,5.022c0.562,1.534 1.175,2.735 1.84,3.604l-6.824,2.76c-0.664,-0.665 -1.278,-1.457 -1.84,-2.377c-0.46,-0.818 -0.894,-1.802 -1.303,-2.952c-0.409,-1.15 -0.665,-2.517 -0.767,-4.102c-0.869,3.067 -2.262,5.38 -4.179,6.939c-1.916,1.559 -4.51,2.339 -7.782,2.339c-2.402,0 -4.485,-0.448 -6.248,-1.342c-1.764,-0.895 -3.233,-2.172 -4.409,-3.834c-1.176,-1.661 -2.045,-3.667 -2.607,-6.018c-0.562,-2.352 -0.843,-4.958 -0.843,-7.821c0,-2.913 0.447,-5.61 1.342,-8.089c0.894,-2.479 2.146,-4.613 3.756,-6.402c1.611,-1.789 3.54,-3.194 5.789,-4.217c2.249,-1.022 4.728,-1.533 7.437,-1.533c1.534,0 3.131,0.115 4.792,0.345c1.661,0.23 3.208,0.473 4.639,0.728c1.431,0.256 2.645,0.499 3.642,0.729c0.996,0.23 1.571,0.37 1.725,0.421l0,18.095ZM176.548,151.775c1.073,-0.869 2.006,-2.007 2.798,-3.412c0.793,-1.406 1.406,-3.016 1.841,-4.831c0.434,-1.814 0.651,-3.667 0.651,-5.558l0,-11.041c-0.511,-0.153 -1.278,-0.332 -2.3,-0.537c-1.022,-0.204 -1.942,-0.306 -2.76,-0.306c-1.942,0 -3.54,0.332 -4.792,0.996c-1.252,0.665 -2.262,1.585 -3.029,2.761c-0.766,1.175 -1.303,2.581 -1.61,4.216c-0.306,1.636 -0.46,3.425 -0.46,5.367c0,1.789 0.051,3.502 0.154,5.137c0.102,1.636 0.37,3.093 0.805,4.371c0.434,1.278 1.06,2.287 1.878,3.028c0.818,0.741 1.917,1.112 3.297,1.112c1.278,0 2.454,-0.435 3.527,-1.303Z" style="fill:#403f41;fill-rule:nonzero;"/><path d="M196.636,120.569l6.9,0l1.534,-8.97l7.207,-1.61l0,10.58l9.43,0l-1.073,6.211l-8.357,0l0,22.694c0,1.329 0.358,2.186 1.073,2.569c0.716,0.383 1.508,0.575 2.377,0.575c0.716,0 1.431,-0.051 2.147,-0.153c0.715,-0.103 1.354,-0.23 1.917,-0.384c0.664,-0.153 1.303,-0.332 1.916,-0.536l1.457,5.75l-0.69,0.23c-0.46,0.204 -1.137,0.422 -2.032,0.652c-0.894,0.23 -1.942,0.434 -3.143,0.613c-1.201,0.179 -2.518,0.268 -3.949,0.268c-1.431,0 -2.747,-0.153 -3.948,-0.46c-1.202,-0.306 -2.237,-0.805 -3.106,-1.495c-0.869,-0.69 -1.546,-1.572 -2.031,-2.645c-0.486,-1.073 -0.729,-2.402 -0.729,-3.987l0,-23.691l-6.9,0l0,-6.211Z" style="fill:#403f41;fill-rule:nonzero;"/></svg>